<svg width="50" height="73" viewBox="0 0 50 73" fill="none" xmlns="http://www.w3.org/2000/svg">
<path d="M25 4.54109C27.6522 4.54109 30.1957 5.49796 32.0711 7.2012C33.9464 8.90443 35 11.2145 35 13.6233V26.7876C35 29.549 32.7614 31.7876 30 31.7876H20C17.2386 31.7876 15 29.549 15 26.7876V13.6233C15 11.2145 16.0536 8.90443 17.9289 7.2012C19.8043 5.49796 22.3478 4.54109 25 4.54109ZM44.8256 32.9151C42.3561 31.6794 40 29.549 40 26.7876V13.6233C40 10.0101 38.4197 6.54502 35.6066 3.99016C32.7936 1.4353 28.9782 0 25 0C21.0218 0 17.2064 1.4353 14.3934 3.99016C11.5804 6.54502 10 10.0101 10 13.6233V26.7876C10 29.549 7.6439 31.6794 5.17436 32.9151C4.35736 33.3238 3.60033 33.838 2.92893 34.4477C1.05357 36.151 0 38.4611 0 40.8698V63.5752C0 65.984 1.05357 68.2941 2.92893 69.9973C4.8043 71.7005 7.34784 72.6574 10 72.6574H40C42.6522 72.6574 45.1957 71.7005 47.0711 69.9973C48.9464 68.2941 50 65.984 50 63.5752V40.8698C50 38.4611 48.9464 36.151 47.0711 34.4477C46.3997 33.838 45.6426 33.3238 44.8256 32.9151Z" fill="#93DEFF"/>
</svg>
